#!OML:ASF F:\VICON\USERDATA\INSTALL\rory3\rory3.ASF
:FULLY-SPECIFIED
:DEGREES
2390
root 2.5387 11.1325 -3.81886 377.905 1.46602 358.883
lowerback 36.1595 0.751152 2.79167
upperback 13.0496 2.15737 4.45324
thorax -3.8128 0.947576 2.46009
lowerneck -4.90716 -3.81084 -10.3427
upperneck 31.2834 -4.37109 2.97804
head 11.2683 -2.71172 2.43679
rclavicle 1.27222e-014 1.90833e-014
rhumerus -52.5949 40.8873 -76.3143
rradius 107.257
rwrist 65.2861
rhand -71.9007 -148.056
rfingers 7.12502
rthumb -43.3881 -483.949
lclavicle 1.27222e-014 1.90833e-014
lhumerus -32.8435 -41.6726 81.7888
lradius 97.1378
lwrist -30.3988
lhand -59.917 30.9361
lfingers 7.12502
lthumb -32.0728 58.1275
rfemur -99.0417 -21.432 21.0145
rtibia 105.62
rfoot -18.0067 -5.58957
rtoes -8.79225
lfemur -100.754 8.98552 -16.8454
ltibia 103.871
lfoot -20.0054 -13.5367
ltoes -15.0288
2391
root 2.52665 11.0847 -3.84462 377.46 1.27885 358.688
lowerback 36.0611 0.868587 2.65285
upperback 13.1203 2.24281 4.43989
thorax -3.71137 0.984791 2.4914
lowerneck -5.03665 -3.73715 -10.4581
upperneck 31.2254 -4.27639 3.1069
head 11.2693 -2.6692 2.51236
rclavicle -3.33958e-014 -4.21423e-014
rhumerus -52.3109 41.0672 -76.1953
rradius 107.132
rwrist 65.4027
rhand -72.1286 -149.444
rfingers 7.12502
rthumb -43.601 -485.413
lclavicle -3.33958e-014 -4.21423e-014
lhumerus -32.7447 -41.4625 81.7486
lradius 97.2954
lwrist -30.2062
lhand -59.7331 30.7548
lfingers 7.12502
lthumb -31.8977 57.9812
rfemur -98.9305 -21.1058 21.0008
rtibia 105.966
rfoot -17.9994 -5.5022
rtoes -8.1522
lfemur -100.737 9.37674 -16.6688
ltibia 104.283
lfoot -20.0645 -13.6671
ltoes -15.3217
2392
root 2.51846 11.029 -3.86798 377.048 1.28225 358.564
lowerback 35.918 0.85323 2.66009
upperback 13.1471 2.21307 4.35991
thorax -3.62807 0.97527 2.41559
lowerneck -5.09076 -3.69266 -10.31
upperneck 31.2019 -4.17766 2.90907
head 11.2545 -2.63055 2.4234
rclavicle -1.43125e-014 4.37326e-015
rhumerus -52.1135 41.2603 -76.3424
rradius 106.884
rwrist 65.1727
rhand -72.3008 -149.534
rfingers 7.12502
rthumb -43.7618 -485.563
lclavicle -1.43125e-014 4.37326e-015
lhumerus -32.2666 -40.6521 81.1897
lradius 97.86
lwrist -31.9404
lhand -57.0091 30.5356
lfingers 7.12502
lthumb -29.3002 58.2473
rfemur -98.9331 -21.0878 20.9678
rtibia 106.365
rfoot -18.042 -5.15198
rtoes -6.92928
lfemur -100.791 9.56113 -16.5608
ltibia 104.646
lfoot -20.0557 -13.7539
ltoes -15.7456
2393
root 2.51126 10.9905 -3.89984 376.492 1.42609 358.547
lowerback 36.0065 0.754487 2.69938
upperback 13.1197 2.1075 4.26909
thorax -3.67812 0.929939 2.33457
lowerneck -5.04868 -3.63083 -10.283
upperneck 31.1072 -4.08458 2.84704
head 11.1995 -2.5931 2.40568
rclavicle 7.95139e-016 -2.38542e-014
rhumerus -51.6858 41.2418 -76.1904
rradius 106.962
rwrist 65.3373
rhand -71.3005 -145.551
rfingers 7.12502
rthumb -42.8271 -481.245
lclavicle 7.95139e-016 -2.38542e-014
lhumerus -32.1908 -40.5073 81.1557
lradius 97.9535
lwrist -31.8338
lhand -56.4405 30.452
lfingers 7.12502
lthumb -28.7571 58.2573
rfemur -98.6536 -21.2594 20.7771
rtibia 106.682
rfoot -18.1726 -4.6563
rtoes -4.7174
lfemur -100.56 9.49357 -16.4591
ltibia 104.865
lfoot -19.9823 -13.8069
ltoes -16.0618
2394
root 2.50439 10.9641 -3.93521 375.863 1.39434 358.53
lowerback 36.0906 0.753194 2.61627
upperback 13.1308 2.07772 4.19931
thorax -3.69391 0.915757 2.31456
lowerneck -5.06069 -3.54297 -10.2426
upperneck 31.1012 -3.93862 2.73791
head 11.185 -2.5367 2.37439
rclavicle -2.46493e-014 -2.82274e-014
rhumerus -51.6159 41.6349 -76.3958
rradius 106.65
rwrist 64.6872
rhand -70.8097 -144.33
rfingers 7.12502
rthumb -42.3677 -479.864
lclavicle -2.46493e-014 -2.82274e-014
lhumerus -32.1212 -40.4766 81.1633
lradius 97.8773
lwrist -31.7269
lhand -56.8574 29.9846
lfingers 7.12502
lthumb -29.1553 57.7216
rfemur -98.2104 -21.22 20.5505
rtibia 106.88
rfoot -18.1919 -4.38479
rtoes -3.54224
lfemur -100.144 9.53292 -16.3626
ltibia 105.032
lfoot -20.0324 -13.7176
ltoes -16.7028
2395
root 2.49869 10.9389 -3.97061 375.274 1.33218 358.498
lowerback 36.1148 0.789383 2.48663
upperback 13.1104 2.08135 4.18769
thorax -3.72982 0.913963 2.36845
lowerneck -5.13145 -3.48111 -10.2254
upperneck 31.2861 -3.79302 2.54344
head 11.2582 -2.49476 2.31654
rclavicle 8.74653e-015 6.75868e-015
rhumerus -51.6477 42.2191 -76.5809
rradius 106.225
rwrist 63.9236
rhand -70.8057 -143.802
rfingers 7.12502
rthumb -42.3639 -479.335
lclavicle 8.74653e-015 6.75868e-015
lhumerus -32.1763 -40.3894 81.318
lradius 97.8542
lwrist -31.606
lhand -55.3869 31.4123
lfingers 7.12502
lthumb -27.7502 59.3841
rfemur -97.815 -21.1456 20.4038
rtibia 107.033
rfoot -18.0878 -4.32107
rtoes -3.37381
lfemur -99.7773 9.60915 -16.2648
ltibia 105.2
lfoot -20.0599 -13.7001
ltoes -17.0521
2396
root 2.49197 10.9097 -4.00546 374.752 1.31471 358.48
lowerback 35.994 0.810831 2.36911
upperback 13.0696 2.06775 4.18582
thorax -3.73842 0.905249 2.43297
lowerneck -4.99887 -3.42381 -10.3376
upperneck 31.3579 -3.68731 2.4656
head 11.2556 -2.4715 2.3212
rclavicle -2.94201e-014 -2.26615e-014
rhumerus -51.694 42.6523 -76.6739
rradius 105.963
rwrist 63.1123
rhand -70.6012 -141.144
rfingers 7.12502
rthumb -42.1724 -476.612
lclavicle -2.94201e-014 -2.26615e-014
lhumerus -32.2482 -40.3466 81.4665
lradius 97.7963
lwrist -31.4826
lhand -54.602 31.4808
lfingers 7.12502
lthumb -26.9994 59.5712
rfemur -97.5397 -21.137 20.2731
rtibia 107.188
rfoot -18.0107 -4.19276
rtoes -2.9284
lfemur -99.5074 9.64313 -16.1653
ltibia 105.35
lfoot -19.9557 -13.7398
ltoes -16.8473
